# xmcd
#
# Track frame offsets:
#	150
#	11297
#	22127
#	37932
#	52612
#	68345
#	81435
#	94767
#	107572
#	124995
#
# Disc length: 1885 seconds
#
# Revision: 19
# Processed by: cddbd v1.5.1PL0 Copyright (c) Steve Scherf et al.
# Submitted via: audiograbber 1.83.01
#
DISCID=6e075b0a
DTITLE=Alan Jackson - A Lot About Livin' (And A Little 'Bout Love)
DYEAR=1992
DGENRE=Country
TTITLE0=Chattahoochee
TTITLE1=She Got The Rhythm (And I Got The Blues)
TTITLE2=Tonight I Climbed The Wall
TTITLE3=I Don't Need The Booze (To Get A Buzz On)
TTITLE4=(Who Says) You Can't Have It All
TTITLE5=Up To My Ears In Tears
TTITLE6=Tropical Depression
TTITLE7=She Likes It Too
TTITLE8=If It Ain't One Thing (It's You)
TTITLE9=Mercury Blues
EXTD=
EXTT0=
EXTT1=
EXTT2=
EXTT3=
EXTT4=
EXTT5=
EXTT6=
EXTT7=
EXTT8=
EXTT9=
PLAYORDER=
